<svg xmlns="http://www.w3.org/2000/svg">
<defs>
<font id="WickedMouse" horiz-adv-x="55" >
  <font-face 
    font-family="Wicked Mouse"
    font-weight="400"
    font-stretch="normal"
    units-per-em="2048"
    panose-1="2 0 5 0 0 0 0 0 0 0"
    ascent="1638"
    descent="-410"
    x-height="1632"
    cap-height="1648"
    bbox="-32 -679.78 2550 2553"
    underline-thickness="150"
    underline-position="-592"
    unicode-range="U+001D-F002"
  />
<missing-glyph horiz-adv-x="2109" 
d="M602 904h-41v206h41v-61q5 5 15 11q8 4 18 4q51 0 51 -65v-95h-42v92q0 26 -21 26t-21 -26v-92zM770 944q6 0 14 3q8 5 12 9q6 6 7 12q3 4 3 15q0 9 -3 14q-1 6 -7 12q-4 6 -12 9q-5 3 -14 3q-10 0 -14 -3q-6 -2 -11 -9q-5 -5 -8 -12t-3 -14q0 -6 3 -15q3 -7 8 -12
q3 -3 11 -9q9 -3 14 -3zM811 1043l38 22v-161h-41v21h-2q-10 -21 -41 -21h-3q-14 0 -26 6q-11 5 -24 17q-10 10 -16 24q-5 15 -5 27v6q0 12 5 27q8 18 16 26q10 12 24 18q12 6 29 6q29 0 46 -18zM861 904v161h41v-26q3 10 8 17q4 7 9 10q11 4 14 5q9 1 18 1l-13 -48
q-16 0 -24 -8q-7 -8 -7 -26v-86h-46zM955 904v206h46v-117h1l33 71h55l-40 -78l48 -82h-56l-40 70h-1v-70h-46zM1093 922l23 32q14 -14 33 -14q20 0 20 12q0 7 -11 9l-12 4q-3 1 -7.5 2t-6.5 1l-6 3l-6 2q-2 1 -5 4q-2 1 -6 5q-3 3 -7 13q-2 8 -2 19q0 14 4 21q4 10 13 15
q7 7 17 10q12 2 22 2q12 0 27 -5q11 -5 23 -15l-25 -26q-11 9 -24 9q-15 0 -15 -9t11 -12l8 -2l5 -1l6 -1q7 -2 19 -8q9 -4 15 -14q5 -8 5 -20v-5q0 -15 -4 -23t-13 -15q-6 -6 -19 -11q-13 -3 -22 -3q-15 0 -17 1q-10 2 -15 4l-7 3l-7 3l-7 5zM1259 904h-43v206h43v-61
q3 6 14 11q8 4 18 4q51 0 51 -65v-95h-42v92q0 26 -21 26q-20 0 -20 -26v-92zM1456 957q11 11 11 26q0 7 -3 14q-3 9 -8 12q-4 5 -12 9q-8 3 -15 3q-5 0 -14 -3q-6 -3 -12 -9q-5 -5 -8 -12q-3 -8 -3 -14q0 -15 11 -26q14 -11 26 -11q14 0 27 11zM1354 953q-7 15 -7 29v1
q0 17 7 32q7 16 18 25q16 13 26 17q17 5 31 5q15 0 32 -5q13 -4 27 -17q11 -11 18 -25q6 -13 6 -32q0 -17 -6 -31q-7 -14 -18 -25q-14 -13 -27 -17q-13 -7 -32 -7q-17 0 -30 7q-14 6 -27 17t-18 26zM1623 1058v-47q-16 11 -30 11q-16 0 -27 -11q-10 -10 -10 -26q0 -7 3 -17

<glyph glyph-name=".notdef" horiz-adv-x="2109" 
d="M602 904h-41v206h41v-61q5 5 15 11q8 4 18 4q51 0 51 -65v-95h-42v92q0 26 -21 26t-21 -26v-92zM770 944q6 0 14 3q8 5 12 9q6 6 7 12q3 4 3 15q0 9 -3 14q-1 6 -7 12q-4 6 -12 9q-5 3 -14 3q-10 0 -14 -3q-6 -2 -11 -9q-5 -5 -8 -12t-3 -14q0 -6 3 -15q3 -7 8 -12
q3 -3 11 -9q9 -3 14 -3zM811 1043l38 22v-161h-41v21h-2q-10 -21 -41 -21h-3q-14 0 -26 6q-11 5 -24 17q-10 10 -16 24q-5 15 -5 27v6q0 12 5 27q8 18 16 26q10 12 24 18q12 6 29 6q29 0 46 -18zM861 904v161h41v-26q3 10 8 17q4 7 9 10q11 4 14 5q9 1 18 1l-13 -48
q-16 0 -24 -8q-7 -8 -7 -26v-86h-46zM955 904v206h46v-117h1l33 71h55l-40 -78l48 -82h-56l-40 70h-1v-70h-46zM1093 922l23 32q14 -14 33 -14q20 0 20 12q0 7 -11 9l-12 4q-3 1 -7.5 2t-6.5 1l-6 3l-6 2q-2 1 -5 4q-2 1 -6 5q-3 3 -7 13q-2 8 -2 19q0 14 4 21q4 10 13 15
q7 7 17 10q12 2 22 2q12 0 27 -5q11 -5 23 -15l-25 -26q-11 9 -24 9q-15 0 -15 -9t11 -12l8 -2l5 -1l6 -1q7 -2 19 -8q9 -4 15 -14q5 -8 5 -20v-5q0 -15 -4 -23t-13 -15q-6 -6 -19 -11q-13 -3 -22 -3q-15 0 -17 1q-10 2 -15 4l-7 3l-7 3l-7 5zM1259 904h-43v206h43v-61
q3 6 14 11q8 4 18 4q51 0 51 -65v-95h-42v92q0 26 -21 26q-20 0 -20 -26v-92zM1456 957q11 11 11 26q0 7 -3 14q-3 9 -8 12q-4 5 -12 9q-8 3 -15 3q-5 0 -14 -3q-6 -3 -12 -9q-5 -5 -8 -12q-3 -8 -3 -14q0 -15 11 -26q14 -11 26 -11q14 0 27 11zM1354 953q-7 15 -7 29v1
q0 17 7 32q7 16 18 25q16 13 26 17q17 5 31 5q15 0 32 -5q13 -4 27 -17q11 -11 18 -25q6 -13 6 -32q0 -17 -6 -31q-7 -14 -18 -25q-14 -13 -27 -17q-13 -7 -32 -7q-17 0 -30 7q-14 6 -27 17t-18 26zM1623 1058v-47q-16 11 -30 11q-16 0 -27 -11q-10 -10 -10 -26q0 -7 3 -17
q1 -2 2.5 -4.5t2.5 -5.5t2 -4q5 -5 12 -8q7 -4 16 -4q17 0 29 12v-46q-5 -3 -15 -5q-4 0 -7.5 -0.5t-5.5 -0.5l-2 -1h-6q-15 0 -27 6q-16 6 -27 18q-12 12 -17 25q-6 14 -6 27v2q0 17 6 34q6 15 18 27q11 11 26 17q17 5 33 5q3 1 8 1q10 0 22 -5zM1635 904v206h46v-117
l33 71h56l-40 -78l48 -82h-56l-41 70v-70h-46zM1814 1121q-7 5 -14 5q-9 0 -14 -5q-6 -6 -6 -14q0 -9 6 -14q4 -6 14 -6q8 0 14 6q5 5 5 14q0 7 -5 14zM1815 1090q-7 -7 -15 -7q-10 0 -17 7q-6 8 -6 17t6 15q7 7 17 7q8 0 15 -7q7 -6 7 -15q0 -10 -7 -17zM1793 1117v-8h10
l2 1q1 1 1 2q0 3 -1 4t-4 1h-8zM1793 1094h-4v25h11h5l1 -1q2 0 2 -1q0 -2 1 -3l1 -2q0 -2 -2 -4t-6 -2q1 -1 3 -1l1 -2l1 -2l5 -7h-5l-3 6l-1 2l-1 1l-2 2h-2h-5v-11zM1107 1545l-1 9v9l-3 -13q2 -3 4 -5zM1234 1393v-1q0 -22 -19 -57q-5 -17 -14 -26q-10 -25 -37 -56
l-2 -3l-1 -2q-1 -1 -3 -2l-2 -2l-4 -5l-3 -3l-5 -5l-2 -2l-1 -1l-1 -1q-4 -3 -11 -17l-8 -20l-10 -16l-7 -8l-3 -6l-1 -1v-1l-2 -2q-1 -1 -2 -1l-1 1q-1 -1 -2 -1t-1 1q-1 -1 -2 -1h-1q-1 1 -1 4v1l2 7l6 14q4 7 4 11v1l-1 5q0 10 17 13l1 1v3q0 11 4 19q2 6 6 14
q7 17 17 22q1 3 2 7l2 4q0 1 1 1q0 2 2 4q1 2 5 8q7 7 8 12q1 1 1 5v4v3q0 6 2 12q0 9 13 19l2 2l2 3q-5 2 -8 14q0 1 -0.5 2.5t-1 4t-0.5 4.5t-1 5q0 4 -1 5q-7 2 -11 8v-2q0 -13 -6 -13q-7 0 -16 12q0 -9 -5 -14t-9 -5q-14 2 -14 20q-10 -13 -15 -13q-2 0 -3 1q-3 3 -4 25
q-10 -13 -16 -13q-2 0 -3 1q-4 3 -4 13q0 1 1 4v3v3q-4 -4 -10 -4t-11 4q-3 5 -3 7v2q1 4 9 9q-19 0 -24 5q4 2 10 4q8 2 11 3q4 2 5 3l-5 -1q-2 0 -3 1q-3 2 -3 9v1q-9 -12 -12 -12q-2 0 -2 2l2 9v4l1 4l1 5q-9 -9 -12 -13q-4 -4 -4 -5v1v2q0 8 4 17q-12 -12 -18 -12
q-3 0 -3 5v4v3l1 4q-7 -15 -16 -19v3q0 5 4 12q3 5 5 10l1 2v2l1 1v1l-2 -2l-2 -2q-4 -4 -6 -7q-7 -9 -10 -10q1 2 2 7v3l1 5q0 8 1 11q-6 -6 -11 -6h-2q-5 1 -6 9q0 4 5 12q6 8 6 11l-16 -8q-1 -1 -6 -1t-6 4q-1 1 -1 4q0 6 6 12q6 7 14 9l-4 -1h-4q-2 -1 -5 -1
q-11 0 -12 7v2q0 4 8 9l1 1h2l4 2l3 2l3 1q-16 7 -16 11l1 1q1 1 22 7v1l-1 1q-1 1 -4 3l-2 2l-2 2l-2 1q-3 4 -3 8v4h3q5 0 12 -3t11 -3h2q-2 5 -9 14q-3 4 -3 7q0 4 5 4t13 -8q6 -7 11 -12q-10 52 -14 52l-1 -1q14 -7 31 -46q-7 21 -8 43v4v3q0 15 5 15h1l2 -1h-1v-1
q0 -3 14 -36v-2l1 -2q1 -1 1 -2t1 -2q1 -3 5 -14q7 -13 8 -23q-10 39 -10 73q0 32 13 41q7 -4 7 -20v-5q0 -6 -1 -7l-1 -3v-7q0 -2 1.5 -11l2.5 -15l2 -8l1 -8l1 -5v-4q0 70 19 99q6 -3 6 -18q0 -4 -2 -22q-1 -8 -2 -15.5t-1.5 -12.5t-1 -9.5t-0.5 -6.5v-3v-1v3l1 4l2 6l2 7
l1 9l3 9q1 3 2.5 8t1.5 6q12 39 24 39q1 0 2 -1q-2 -16 -13 -42q-13 -27 -14 -43q8 26 24 47q19 27 43 32q0 -13 -38 -45q-22 -35 -22 -70v-9l1 -4q2 -11 5 -17q9 45 50 95q20 24 41 41h7q-26 -14 -50 -54q34 25 79 25l-1 -7q-77 -1 -93 -57q-5 -13 -5 -30q0 -26 10 -56
l2 -1l2 -2q9 -9 19 -36q0 4 5 9q4 4 10 4h2v-1l10 9q-7 -4 -9 -9h2h2q5 2 5 5l-2 -4l4 3l-5 -4l1 -1l5 3l-5 -4h1q2 1 6 5q-2 -4 -5 -5l11 1q1 -1 1 -2l-1 -2h4v-2q2 0 2 -2v-2q4 0 5 -3v-1q0 -1 -2 -3q-4 -4 -4 -6v-1l1 -2l2 -3l1 -3l1 -3l5 -5h1h2q6 0 10 -6q7 -7 8 -18
q1 -1 1 -7q0 -10 -4 -15v-4v-4q1 -3 1 -5zM554 961l-203 -127l33 67l-77 63l231 145v-56l-54 -34zM447 996l-10 -7l-3 -2l44 -37l7 15zM435 932l-39 32l-14 -9l45 -37zM393 522q2 23 -6 46q-8 20 -23 32q-20 14 -48 14q-32 1 -63 -10l5 -169q31 -6 65 2q30 8 46 25
q23 22 24 60zM1899 501q7 43 -20 75q-27 33 -73 36q-46 4 -84 -23q-36 -28 -44 -70q-7 -43 21 -76q27 -32 73 -36q45 -3 83 24q36 26 44 70zM540 278l5 132q-15 -32 -41 -60q-53 -54 -155 -77q-69 -16 -162 -14q-53 2 -74 5l-43 483q96 35 214 39q170 8 241 -120
q13 -24 21 -47q1 -4 3 -10t3 -10l6 189l350 3l-3 -145l-179 8l-4 -64l108 4l-11 -134l-104 4l-5 -60l201 -3l122 397l193 -215l162 211l123 -322q-3 27 2 57q9 53 39 99q28 44 73 78q95 69 210 60q58 -5 104 -29q47 -23 79 -62q32 -38 46 -87q14 -51 5 -102q-7 -52 -38 -99
q-29 -45 -74 -77q-94 -70 -209 -61q-54 4 -105 29q-46 24 -79 63q-2 3 -7 8l6 -16l-177 -73l-64 168l-90 -117l-114 135l-47 -183l-165 56l-5 -60z" />
    <glyph glyph-name="uni0000" horiz-adv-x="0" 
 />
    <glyph glyph-name="uni0000" horiz-adv-x="0" 
 />
    <glyph glyph-name="nonmarkingreturn" horiz-adv-x="682" 
 />
    <glyph glyph-name="space" unicode=" " horiz-adv-x="490" 
 />
    <glyph glyph-name="space" unicode="&#xa0;" horiz-adv-x="490" 
 />
    <glyph glyph-name="exclam" unicode="!" horiz-adv-x="722" 
 />
    <glyph glyph-name="quotedbl" unicode="&#x22;" horiz-adv-x="917" 
 />
    <glyph glyph-name="numbersign" unicode="#" horiz-adv-x="1384" 
 />
    <glyph glyph-name="dollar" unicode="$" horiz-adv-x="1206" 
 />
    <glyph glyph-name="percent" unicode="%" horiz-adv-x="1766" 
 />
    <glyph glyph-name="ampersand" unicode="&#x26;" horiz-adv-x="1664" 
 />
    <glyph glyph-name="quotesingle" unicode="'" horiz-adv-x="461" 
 />
    <glyph glyph-name="parenleft" unicode="(" horiz-adv-x="1041" 
 />
    <glyph glyph-name="parenright" unicode=")" horiz-adv-x="950" 
 />
    <glyph glyph-name="asterisk" unicode="*" horiz-adv-x="734" 
 />
    <glyph glyph-name="plus" unicode="+" horiz-adv-x="905" 
 />
    <glyph glyph-name="comma" unicode="," horiz-adv-x="527" 
d="M84 334q78 74 178 73q93 -1 159 -66q66 -66 70 -159q13 -216 -104 -406l-6 -10l-6 -10q-7 -14 -12 -21q-12 -18 -43 -55q-20 -21 -40 -21q-21 0 -29 20q-5 11 9 34l5 9l5 9q7 11 8 13q7 16 12 32q5 18 7 35q4 40 -21 62q-15 15 -53 26l-30 7q-23 5 -28 7q-78 22 -125 92
q-45 67 -39 151q6 104 83 178z" />
    <glyph glyph-name="hyphen" unicode="-" horiz-adv-x="759" 
 />
    <glyph glyph-name="hyphen" unicode="&#xad;" horiz-adv-x="759" 
 />
    <glyph glyph-name="period" unicode="." horiz-adv-x="587" 
d="M54 -22q-54 85 -30 187q26 104 112 162q88 60 188 42t154 -104q54 -85 30 -187q-26 -104 -112 -162q-88 -60 -188 -42t-154 104z" />
    <glyph glyph-name="slash" unicode="/" horiz-adv-x="1592" 
 />
    <glyph glyph-name="zero" unicode="0" horiz-adv-x="1687" 
d="M1008 1087q-80 93 -198 102q-119 9 -208 -72q-87 -79 -95 -202q-6 -123 73 -215q79 -91 199 -102q120 -8 207 71q88 81 96 203q6 121 -74 215zM1083 50q-152 -57 -314 -45q-162 13 -306 93q-139 80 -243 210q-220 276 -200 643q19 367 266 608q118 114 263 169
q152 59 314 45q162 -12 306 -93q139 -78 243 -209q220 -276 200 -644q-20 -367 -266 -607q-118 -113 -263 -170z" />
    <glyph glyph-name="one" unicode="1" horiz-adv-x="982" 
d="M805 1789l122 -1765l-661 -14v1191l-263 -9l-3 488z" />
    <glyph glyph-name="two" unicode="2" horiz-adv-x="1591" 
d="M1511 -20l-1297 43q171 176 326 390q311 432 237 644q-37 85 -105 124q-134 77 -281 -156l-391 314q70 104 197 214q249 216 516 225q73 2 165 -16q189 -38 307 -136q167 -140 168 -384q2 -309 -254 -763h437z" />
    <glyph glyph-name="three" unicode="3" horiz-adv-x="1460" 
d="M1138 1041q89 -80 147 -190q85 -157 83 -320q-1 -160 -91 -303q-95 -152 -266 -227q-173 -74 -387 -58q-141 11 -287 62q-163 55 -261 141l294 352q72 -44 158 -64q121 -28 217 -1q92 24 106 83q37 160 -114 204q-48 14 -114 16h-23h-19q-12 -1 -28 -1l-34 353q11 4 14 4
l3 1l29 3l29 3q36 5 60 9q68 13 102 46q31 32 35 83q4 53 -25 85q-39 44 -122 24q-33 -8 -69 -24q-27 -12 -56 -31q-19 -13 -174 -142l-358 272q67 114 181 204q136 109 307 165q179 62 342 45q119 -12 231 -72q101 -55 154 -99q82 -68 108 -150q49 -144 -6 -265
q-43 -98 -166 -208z" />
    <glyph glyph-name="four" unicode="4" horiz-adv-x="1602" 
d="M1547 890l-35 -549l-79 4l-3 -355l-558 23v362l-872 48l35 1298h558l-35 -842l314 3v804l570 -12l-5 -785z" />
    <glyph glyph-name="five" unicode="5" horiz-adv-x="1438" 
d="M782 1261v-125q412 -44 548 -273q116 -196 28 -516q-79 -285 -413 -349q-267 -50 -621 48q-2 0 -9.5 2.5l-13.5 4.5q-22 8 -40 14q-48 18 -110 44q-150 62 -141 86q66 165 199 491q127 -77 253 -127q120 -45 194 -49q99 -5 130 56q17 40 -2 87q-18 40 -65 75
q-59 40 -159 66q-207 51 -383 32l-24 845l1143 80v-457z" />
    <glyph glyph-name="six" unicode="6" horiz-adv-x="1561" 
d="M891 457q80 53 101 143q22 89 -26 165q-49 75 -140 91q-90 17 -170 -36q-78 -52 -101 -143q-22 -91 26 -166q49 -75 140 -91q89 -16 170 37zM1307 1097q150 -149 195 -368q55 -273 -72 -511t-380 -330q-138 -50 -296 -34q-162 17 -314 95q-155 79 -264 200
q-106 120 -141 252q-105 415 246 887q285 382 725 648l265 -417q-163 -97 -322 -239q209 -36 358 -183z" />
    <glyph glyph-name="seven" unicode="7" horiz-adv-x="1479" 
d="M12 1212l-12 540l1424 37l-454 -1829l-688 98l381 1154h-651z" />
    <glyph glyph-name="eight" unicode="8" horiz-adv-x="1550" 
d="M618 441q65 -44 157 -38q91 5 156 54q65 51 63 117q-2 68 -67 111q-63 43 -157 38q-92 -5 -156 -54q-64 -51 -63 -117q2 -68 67 -111zM878 1383q-48 23 -108 16q-61 -7 -103 -43q-41 -34 -37 -74q5 -42 50 -64q46 -22 108 -15q64 8 103 41q41 35 37 75q-3 40 -50 64z
M1357 1336q-5 -152 -108 -278q134 -89 208 -222q76 -136 70 -289q-11 -267 -239 -455q-230 -188 -543 -188q-314 0 -529 188q-217 189 -206 455q6 137 75 261q67 119 185 210q-128 141 -121 318q7 209 190 360q184 149 433 149t422 -149q171 -150 163 -360z" />
    <glyph glyph-name="nine" unicode="9" horiz-adv-x="1607" 
d="M667 1349q-80 -53 -102 -143q-21 -90 27 -165q49 -75 139 -91q91 -16 171 36q78 52 101 143q22 91 -26 166q-49 75 -140 91q-89 16 -170 -37zM251 709q-150 149 -195 368q-55 273 72 511t380 330q138 50 296 34q162 -17 314 -95q156 -80 263 -200q108 -120 141 -252
q106 -414 -245 -887q-285 -382 -725 -648l-265 417q162 97 322 239q-209 36 -358 183z" />
    <glyph glyph-name="colon" unicode=":" horiz-adv-x="587" 
 />
    <glyph glyph-name="semicolon" unicode=";" horiz-adv-x="587" 
 />
    <glyph glyph-name="semicolon" unicode="&#x37e;" horiz-adv-x="587" 
 />
    <glyph glyph-name="less" unicode="&#x3c;" horiz-adv-x="1106" 
 />
    <glyph glyph-name="equal" unicode="=" horiz-adv-x="1001" 
 />
    <glyph glyph-name="greater" unicode="&#x3e;" horiz-adv-x="1106" 
 />
    <glyph glyph-name="question" unicode="?" horiz-adv-x="1350" 
 />
    <glyph glyph-name="at" unicode="@" horiz-adv-x="2490" 
 />
    <glyph glyph-name="A" unicode="A" horiz-adv-x="1909" 
d="M776 553l233 17l-102 252zM1271 -70l-110 268l-574 -32l-134 -276l-453 274l935 1656l919 -1676z" />
    <glyph glyph-name="B" unicode="B" horiz-adv-x="1596" 
d="M836 369l14 8q37 22 59 52q24 35 18 74q-16 85 -127 127q-42 17 -97 24q-36 7 -89 10l19 -306q0 -5 55 -8q6 0 19 -1t20 -1h23q48 1 86 21zM576 1328l18 -293q89 3 147 49q55 44 59 101q4 59 -49 99q-61 45 -175 44zM1188 998q267 -92 311 -359q42 -254 -106 -420
q-137 -155 -386 -178q-100 -9 -262 -11h-131l-131 1l-1 1h-398l-84 1640l546 16q189 0 353 -23q204 -29 321 -89q313 -158 41 -503q-27 -35 -73 -75z" />
    <glyph glyph-name="C" unicode="C" horiz-adv-x="1671" 
d="M1290 547l169 -374q-146 -97 -321 -133q-184 -38 -366 -4q-185 35 -337 131q-148 94 -251 235q-102 139 -143 306q-41 171 -9 345q31 171 131 318q100 143 242 235q308 201 681 133q319 -59 530 -294l-255 -332q-90 83 -213 105q-164 30 -298 -53q-135 -83 -162 -229
q-27 -147 69 -272q98 -126 260 -156q145 -27 273 39z" />
    <glyph glyph-name="D" unicode="D" horiz-adv-x="1657" 
d="M940 676q76 71 89 196q11 76 -15 153q-23 68 -70 108q-60 51 -155 55q-112 7 -209 -23l-9 -558q102 -25 214 -5q94 18 155 74zM1577 1026q12 -78 10 -135q15 -385 -219 -603q-188 -172 -525 -231q-244 -41 -534 -20q-153 11 -243 29l-66 1596q321 100 711 97
q562 0 775 -434q37 -73 61 -160q20 -68 30 -139z" />
    <glyph glyph-name="E" unicode="E" horiz-adv-x="1282" 
d="M1215 1745l-12 -478l-589 24l-13 -209l356 13l-36 -442l-344 12l-15 -196l665 -13l-36 -466l-1191 61l61 1682z" />
    <glyph glyph-name="F" unicode="F" horiz-adv-x="1258" 
d="M1190 1142l-551 12l7 -213h375l-9 -421l-353 14l18 -546l-602 -38l-75 1693l1203 25z" />
    <glyph glyph-name="G" unicode="G" horiz-adv-x="1779" 
d="M1702 1056l29 -828q-235 -242 -582 -295q-198 -31 -391 12q-185 40 -341 145q-153 103 -255 253q-104 157 -134 339q-29 185 20 361q48 173 163 318q242 306 646 368q201 32 395 -12q190 -44 344 -149l-193 -388q-137 71 -294 47q-178 -27 -286 -156q-107 -130 -82 -284
q26 -155 169 -245q142 -90 321 -64l1 1l26 199l-268 3l35 379z" />
    <glyph glyph-name="H" unicode="H" horiz-adv-x="1612" 
d="M949 1662l608 -34l-102 -1658l-549 22l16 636l-322 -14l9 -560l-609 8l34 1661h549l10 -677l341 24z" />
    <glyph glyph-name="I" unicode="I" horiz-adv-x="713" 
d="M108 1648l550 -23l-48 -1675l-610 36z" />
    <glyph glyph-name="J" unicode="J" horiz-adv-x="1046" 
d="M956 1732l35 -1043q-10 -248 -151 -428q-113 -143 -300 -233q-213 -103 -427 -115l-113 473q286 76 381 273q47 98 36 181l-48 833z" />
    <glyph glyph-name="K" unicode="K" horiz-adv-x="1676" 
d="M1621 337l-516 -407l-503 545l-5 -457l-560 18l-37 1652l594 -6l-2 -493l562 515l439 -341l-595 -497z" />
    <glyph glyph-name="L" unicode="L" horiz-adv-x="1265" 
d="M54 1643l627 -8l-47 -1142l553 -17l-9 -532l-1161 -11z" />
    <glyph glyph-name="M" unicode="M" horiz-adv-x="2353" 
d="M2240 219l-584 -243l-212 556l-296 -387l-376 446l-154 -603l-605 205l479 1558l637 -708l533 696z" />
    <glyph glyph-name="N" unicode="N" horiz-adv-x="1798" 
d="M632 24l-632 55l131 1573l957 -687l-8 722l663 6l-98 -1743l-988 608z" />
    <glyph glyph-name="O" unicode="O" horiz-adv-x="1897" 
d="M1155 533q122 90 146 231q23 140 -66 247q-92 108 -242 120q-151 10 -275 -79q-122 -92 -146 -231q-23 -142 67 -248q90 -109 241 -119q151 -12 275 79zM398 1439q310 228 690 199q186 -15 345 -96q152 -76 261 -205q107 -128 152 -286q45 -164 16 -337
q-28 -174 -128 -326q-94 -148 -241 -256q-310 -228 -690 -199q-187 15 -346 96q-153 76 -261 205t-151 286q-46 162 -17 337q30 176 127 326q95 148 243 256z" />
    <glyph glyph-name="P" unicode="P" horiz-adv-x="1453" 
d="M715 921q128 50 129 203q0 86 -42 144q-34 46 -93 75q-67 31 -135 33l13 -473q64 -6 128 18zM36 10l-36 1698q333 61 677 29q296 -27 472 -135q217 -133 229 -388q20 -460 -322 -650q-125 -69 -269 -88q-122 -17 -191 6l15 -430z" />
    <glyph glyph-name="Q" unicode="Q" horiz-adv-x="1886" 
d="M1843 1105q45 -163 16 -337q-50 -300 -291 -517l96 -157l-442 -314l-115 232q-155 -35 -305 -23q-184 13 -345 94q-154 78 -261 206q-108 129 -151 286q-46 161 -17 337q30 173 127 325q96 146 242 255q310 227 689 199q186 -17 345 -96q154 -77 260 -204
q107 -128 152 -286zM1204 845l68 -112q20 42 27 85q23 140 -66 247q-92 107 -241 120q-151 10 -275 -79q-122 -92 -146 -231q-22 -134 62 -241q84 -104 228 -124l-85 172z" />
    <glyph glyph-name="R" unicode="R" horiz-adv-x="1528" 
d="M1473 260l-468 -350l-444 686v-556l-561 16l62 1664q318 76 645 40q285 -32 453 -162q210 -161 227 -470q11 -87 -16 -190q-24 -91 -75 -160q-66 -87 -168 -133zM681 987q121 42 126 174q2 72 -36 122q-31 40 -87 64q-62 27 -129 29l4 -404q60 -6 122 15z" />
    <glyph glyph-name="S" unicode="S" horiz-adv-x="1316" 
d="M1074 793q43 -30 59 -45q131 -115 155 -274q24 -153 -59 -299q-87 -151 -212 -223q-144 -83 -352 -82q-116 2 -272 55q-125 43 -339 189l296 360q86 -167 212 -160q43 -1 63 23t15 71q-6 60 -52 115q-42 48 -158 123q-110 71 -154 104q-220 160 -250 375q-26 188 76 345
q99 150 278 215q230 84 490 37q167 -30 433 -179l-257 -400q-62 110 -171 167q-108 57 -184 -31q-92 -106 110 -284q70 -60 163 -126q106 -73 110 -76z" />
    <glyph glyph-name="T" unicode="T" horiz-adv-x="1479" 
d="M1424 1702v-491l-393 9l-9 -1220h-573l37 1233l-486 11v474z" />
    <glyph glyph-name="U" unicode="U" horiz-adv-x="1698" 
d="M953 1629l565 149q42 -123 80 -277q45 -189 63 -362q46 -465 -108 -766q-84 -163 -222 -270q-183 -141 -440 -169q-5 -1 -17 -1q-4 -1 -12 -1t-12 -1q-44 -2 -67 -1q-95 5 -185 27q-268 70 -426 302q-322 471 -19 1428l600 -43l-25 -70l-25 -69q-22 -62 -47 -142
q-51 -164 -68 -289q-39 -269 36 -407q29 -53 71 -82q34 -23 72 -32q63 -13 133 8q68 23 116 72q15 15 39 61q75 146 23 467q-22 131 -58 259q-29 109 -67 209zM1137 -69l-7 -1l4 1h3zM1235 29l-7 -1q4 1 7 1zM1235 29q-3 0 -7 -1q4 1 7 1z" />
    <glyph glyph-name="V" unicode="V" horiz-adv-x="2093" 
d="M0 1378l516 337l517 -624l340 650l665 -176l-995 -1645z" />
    <glyph glyph-name="W" unicode="W" horiz-adv-x="2332" 
d="M1651 1787l626 -170l-561 -1659l-571 816l-614 -854l-531 1599l639 234l163 -584l381 469l274 -397z" />
    <glyph glyph-name="X" unicode="X" horiz-adv-x="1908" 
d="M1853 247l-628 -214l-279 317l-319 -440l-601 283l488 648l-514 584l577 331l331 -392l296 393l643 -163l-523 -722z" />
    <glyph glyph-name="Y" unicode="Y" horiz-adv-x="1958" 
d="M970 1101l478 614l455 -405l-651 -663l-12 -687h-639v712l-601 638l466 442z" />
    <glyph glyph-name="Z" unicode="Z" horiz-adv-x="1720" 
d="M1567 561l-71 -631l-1496 170l711 940l-649 10l11 613l1592 -141l-631 -924z" />
    <glyph glyph-name="bracketleft" unicode="[" horiz-adv-x="951" 
 />
    <glyph glyph-name="backslash" unicode="\" horiz-adv-x="1592" 
 />
    <glyph glyph-name="bracketright" unicode="]" horiz-adv-x="951" 
 />
    <glyph glyph-name="asciicircum" unicode="^" horiz-adv-x="855" 
 />
    <glyph glyph-name="underscore" unicode="_" horiz-adv-x="860" 
 />
    <glyph glyph-name="grave" unicode="`" horiz-adv-x="739" 
 />
    <glyph glyph-name="a" unicode="a" horiz-adv-x="1909" 
d="M854 568l233 -10l-139 265zM713 191l-101 -271l-590 196l867 1703l986 -1626l-445 -288l-142 272z" />
    <glyph glyph-name="b" unicode="b" horiz-adv-x="1596" 
d="M810 315l14 8q40 21 62 48q26 36 22 73q-12 86 -120 134q-42 19 -96 29q-41 9 -88 15l3 -307q0 -1 2 -2t6 -2t10.5 -2t15.5 -2.5t20 -2.5q6 0 19 -1.5t20 -2.5q12 -1 23 -1q47 -1 87 16zM601 1287l3 -294q87 -1 149 41q57 41 64 98q7 59 -43 102q-59 49 -173 53z
M1195 925q263 -107 291 -375q29 -257 -128 -414q-145 -148 -395 -157q-113 -5 -262 3l-131 7l-131 8l-1 1l-397 21l3 1642l546 -13q191 -10 352 -42q197 -37 315 -106q305 -174 15 -504q-35 -40 -77 -71z" />
    <glyph glyph-name="c" unicode="c" horiz-adv-x="1671" 
d="M1315 554l196 -360q-139 -107 -310 -157q-174 -52 -364 -32q-184 19 -346 105q-154 83 -268 215q-113 133 -166 295q-54 168 -35 343q20 177 106 327q85 145 224 253q294 224 669 184q321 -35 550 -253l-229 -350q-95 74 -220 88q-166 18 -293 -75q-127 -91 -144 -241
q-16 -148 89 -266q106 -118 271 -136q149 -16 270 60z" />
    <glyph glyph-name="d" unicode="d" horiz-adv-x="1657" 
d="M929 639q79 67 99 192q13 74 -8 153q-20 70 -65 112q-54 51 -152 62q-114 12 -210 -13l-35 -557q102 -30 213 -15q97 14 158 66zM1582 958q9 -78 4 -135q-5 -387 -248 -592q-198 -165 -535 -205q-241 -30 -534 5q-143 16 -242 41l11 1597q327 85 714 63q562 -27 754 -471
q34 -79 53 -162q15 -60 23 -141z" />
    <glyph glyph-name="e" unicode="e" horiz-adv-x="1282" 
d="M1187 446l14 -468l-1173 -14l4 1743l1192 35l18 -487l-665 13l8 -197l344 -1l19 -443l-355 27l5 -210z" />
    <glyph glyph-name="f" unicode="f" horiz-adv-x="1258" 
d="M1203 1177l-550 35l-1 -213l374 -16l-27 -420l-352 29l-5 -546l-613 -33l7 1715l1203 -26z" />
    <glyph glyph-name="g" unicode="g" horiz-adv-x="1779" 
d="M1702 1056l29 -828q-235 -242 -582 -295q-198 -31 -391 12q-185 40 -341 145q-153 103 -255 253q-104 157 -134 339q-29 185 20 361q48 173 163 318q242 306 646 368q201 32 395 -12q190 -44 344 -149l-193 -388q-137 71 -294 47q-178 -27 -286 -156q-107 -130 -82 -284
q26 -155 169 -245q142 -90 321 -64l1 1l26 199l-268 3l35 379z" />
    <glyph glyph-name="h" unicode="h" horiz-adv-x="1612" 
d="M31 1657l608 11l-7 -592l340 -37l35 676l549 -21l-30 -1661l-608 15l30 559l-321 27l-9 -636l-579 19z" />
    <glyph glyph-name="i" unicode="i" horiz-adv-x="713" 
d="M593 9l-550 2l-18 1675l611 -12z" />
    <glyph glyph-name="j" unicode="j" horiz-adv-x="1046" 
d="M1017 1656l-36 -1043q-29 -249 -180 -417q-122 -136 -315 -212q-220 -88 -434 -86l-81 480q293 56 399 246q53 95 48 178l9 835z" />
    <glyph glyph-name="k" unicode="k" horiz-adv-x="1676" 
d="M1621 337l-516 -437l-503 575l5 -427l-560 28l-47 1592l584 64l8 -543l592 545l409 -371l-595 -497z" />
    <glyph glyph-name="l" unicode="l" horiz-adv-x="1265" 
d="M0 1710l647 17l-59 -1172l610 34l12 -532l-1159 -27z" />
    <glyph glyph-name="m" unicode="m" horiz-adv-x="2353" 
d="M597 -24l-584 243l578 1520l573 -686l597 698l479 -1558l-605 -205l-154 603l-336 -436l-336 377z" />
    <glyph glyph-name="n" unicode="n" horiz-adv-x="1798" 
d="M704 -44l-634 -2l-11 1578l990 -572l-48 692l663 36l56 -1715l-1035 477z" />
    <glyph glyph-name="o" unicode="o" horiz-adv-x="1875" 
d="M734 1082q-122 -92 -146 -236q-23 -143 66 -253q91 -108 241 -122q151 -12 274 81q123 91 147 236q23 144 -68 253q-89 110 -240 122q-150 12 -274 -81zM1489 156q-310 -233 -688 -203q-185 15 -345 98q-155 81 -259 209q-107 131 -152 293q-46 166 -17 344
q28 177 128 333q93 149 241 262q310 233 688 203q185 -15 345 -98q154 -79 260 -209q108 -132 151 -293q46 -164 17 -344q-28 -176 -127 -333q-95 -150 -242 -262z" />
    <glyph glyph-name="p" unicode="p" horiz-adv-x="1453" 
d="M747 839q131 42 141 195q4 86 -33 147q-31 49 -89 80q-67 37 -132 41l-15 -473q61 -10 128 10zM16 -30l64 1697q343 41 678 -11q295 -43 463 -162q209 -147 206 -401q-7 -461 -360 -630q-128 -62 -274 -72q-121 -9 -190 17l-11 -430z" />
    <glyph glyph-name="q" unicode="q" horiz-adv-x="1886" 
d="M1843 1105q45 -163 16 -337q-50 -300 -291 -517l96 -157l-442 -314l-115 232q-155 -35 -305 -23q-184 13 -345 94q-154 78 -261 206q-108 129 -151 286q-46 161 -17 337q30 173 127 325q96 146 242 255q310 227 689 199q186 -17 345 -96q154 -77 260 -204
q107 -128 152 -286zM1204 845l68 -112q20 42 27 85q23 140 -66 247q-92 107 -241 120q-151 10 -275 -79q-122 -92 -146 -231q-22 -134 62 -241q84 -104 228 -124l-85 172z" />
    <glyph glyph-name="r" unicode="r" horiz-adv-x="1528" 
d="M1499 245l-451 -372l-475 665l25 -555l-561 -10l-15 1665q315 91 643 70q286 -19 460 -141q218 -152 248 -459q15 -87 -7 -191q-20 -92 -68 -163q-60 -88 -161 -141zM674 934q120 48 118 180q-2 73 -41 120q-35 39 -90 60q-64 25 -131 23l23 -403q59 -4 121 20z" />
    <glyph glyph-name="s" unicode="s" horiz-adv-x="1373" 
d="M775 1749q127 -9 267 -57l-132 -383q-206 71 -268 -19q-82 -115 139 -271q71 -52 202 -124l25 -14l22 -12q9 -5 23.5 -12.5t19.5 -10.5q43 -26 63 -39q143 -101 183 -256q39 -152 -28 -304q-71 -158 -188 -244q-133 -97 -342 -117q-114 -10 -276 27q-130 29 -281 87
l215 380q112 -72 194 -63q86 8 68 101q-12 60 -64 109q-43 42 -147 96l-46 23l-46 24q-62 32 -94 51q-236 138 -288 348q-45 184 41 351q83 159 254 242q221 107 484 87z" />
    <glyph glyph-name="t" unicode="t" horiz-adv-x="1479" 
d="M-13 1184l-19 490l1423 71l18 -474l-485 -30l34 -1232l-573 -22l-6 1221z" />
    <glyph glyph-name="u" unicode="u" horiz-adv-x="1698" 
d="M141 1744l568 -138q-33 -92 -63 -210q-33 -130 -52 -260q-47 -323 32 -466q25 -45 41 -61q49 -49 117 -69q71 -20 133 -5q39 9 72 33q42 32 69 84q72 139 27 407q-19 126 -74 288q-17 53 -50 141l-26 68l-26 70l599 55q322 -949 10 -1428q-153 -234 -419 -311
q-88 -25 -185 -31q-34 -1 -67 0q-8 1 -24 1q-12 0 -17 1q-259 24 -443 160q-139 103 -228 265q-161 300 -124 764q15 169 56 363q34 152 74 279zM1137 -69l-7 -1l4 1h3zM1235 29l-7 -1q4 1 7 1zM1235 29q-3 0 -7 -1q4 1 7 1z" />
    <glyph glyph-name="v" unicode="v" horiz-adv-x="2093" 
d="M1519 1778l550 -291l-1001 -1538l-1072 1596l656 207l401 -631z" />
    <glyph glyph-name="w" unicode="w" horiz-adv-x="2332" 
d="M0 1553l626 170l194 -546l284 357l371 -429l163 584l639 -234l-531 -1599l-604 814l-581 -776z" />
    <glyph glyph-name="x" unicode="x" horiz-adv-x="1908" 
d="M678 13l-636 190l506 644l-549 703l636 186l311 -382l316 404l589 -309l-493 -603l512 -630l-590 -304l-335 428z" />
    <glyph glyph-name="y" unicode="y" horiz-adv-x="1958" 
d="M977 1112l445 638l476 -381l-615 -696l24 -687l-639 -33l-37 711l-633 606l442 465z" />
    <glyph glyph-name="z" unicode="z" horiz-adv-x="1720" 
d="M1587 636l-7 -635l-1506 19l593 987l-627 -36l-50 611l1598 50l-505 -1013z" />
    <glyph glyph-name="braceleft" unicode="{" horiz-adv-x="878" 
 />
    <glyph glyph-name="bar" unicode="|" horiz-adv-x="619" 
 />
    <glyph glyph-name="braceright" unicode="}" horiz-adv-x="878" 
 />
    <glyph glyph-name="asciitilde" unicode="~" horiz-adv-x="1182" 
 />
    <glyph glyph-name="exclamdown" unicode="&#xa1;" horiz-adv-x="722" 
 />
    <glyph glyph-name="cent" unicode="&#xa2;" horiz-adv-x="1136" 
 />
    <glyph glyph-name="sterling" unicode="&#xa3;" horiz-adv-x="1307" 
 />
    <glyph glyph-name="currency" unicode="&#xa4;" 
 />
    <glyph glyph-name="yen" unicode="&#xa5;" 
 />
    <glyph glyph-name="brokenbar" unicode="&#xa6;" 
 />
    <glyph glyph-name="section" unicode="&#xa7;" 
 />
    <glyph glyph-name="dieresis" unicode="&#xa8;" horiz-adv-x="1065" 
d="M58 2171q59 53 140 53t140 -53q58 -54 58 -130q0 -77 -58 -129q-58 -54 -140 -54t-140 54q-58 52 -58 129q0 76 58 130zM672 2171q59 53 140 53t140 -53q58 -54 58 -130q0 -77 -58 -129q-58 -54 -140 -54t-140 54q-58 52 -58 129q0 76 58 130z" />
    <glyph glyph-name="copyright" unicode="&#xa9;" 
 />
    <glyph glyph-name="ordfeminine" unicode="&#xaa;" 
 />
    <glyph glyph-name="guillemotleft" unicode="&#xab;" 
 />
    <glyph glyph-name="logicalnot" unicode="&#xac;" 
 />
    <glyph glyph-name="registered" unicode="&#xae;" 
 />
    <glyph glyph-name="overscore" unicode="&#xaf;" 
 />
    <glyph glyph-name="degree" unicode="&#xb0;" 
 />
    <glyph glyph-name="plusminus" unicode="&#xb1;" 
 />
    <glyph glyph-name="uni00B2" unicode="&#xb2;" 
 />
    <glyph glyph-name="uni00B3" unicode="&#xb3;" 
 />
    <glyph glyph-name="acute" unicode="&#xb4;" horiz-adv-x="908" 
 />
    <glyph glyph-name="mu" unicode="&#xb5;" 
 />
    <glyph glyph-name="paragraph" unicode="&#xb6;" 
 />
    <glyph glyph-name="middot" unicode="&#xb7;" 
 />
    <glyph glyph-name="middot" unicode="&#x2219;" 
 />
    <glyph glyph-name="cedilla" unicode="&#xb8;" horiz-adv-x="830" 
 />
    <glyph glyph-name="uni00B9" unicode="&#xb9;" 
 />
    <glyph glyph-name="ordmasculine" unicode="&#xba;" 
 />
    <glyph glyph-name="guillemotright" unicode="&#xbb;" 
 />
    <glyph glyph-name="onequarter" unicode="&#xbc;" 
 />
    <glyph glyph-name="onehalf" unicode="&#xbd;" 
 />
    <glyph glyph-name="threequarters" unicode="&#xbe;" 
 />
    <glyph glyph-name="questiondown" unicode="&#xbf;" horiz-adv-x="1350" 
 />
    <glyph glyph-name="Agrave" unicode="&#xc0;" horiz-adv-x="1909" 
 />
    <glyph glyph-name="Aacute" unicode="&#xc1;" horiz-adv-x="1909" 
 />
    <glyph glyph-name="Acircumflex" unicode="&#xc2;" horiz-adv-x="1909" 
 />
    <glyph glyph-name="Atilde" unicode="&#xc3;" horiz-adv-x="1909" 
 />
    <glyph glyph-name="Adieresis" unicode="&#xc4;" horiz-adv-x="1909" 
 />
    <glyph glyph-name="Aring" unicode="&#xc5;" horiz-adv-x="1909" 
 />
    <glyph glyph-name="AE" unicode="&#xc6;" horiz-adv-x="2605" 
d="M1885 460l665 37l-3 -468l-1192 -26l-7 198l-546 -7l-258 -314l-544 319l1294 1486l1149 96l23 -478l-589 -19l3 -209l354 39l-5 -444l-343 -13zM1326 799l-201 -232q96 0 210 -8z" />
    <glyph glyph-name="Ccedilla" unicode="&#xc7;" horiz-adv-x="1699" 
 />
    <glyph glyph-name="Egrave" unicode="&#xc8;" horiz-adv-x="1282" 
 />
    <glyph glyph-name="Eacute" unicode="&#xc9;" horiz-adv-x="1282" 
 />
    <glyph glyph-name="Ecircumflex" unicode="&#xca;" horiz-adv-x="1282" 
 />
    <glyph glyph-name="Edieresis" unicode="&#xcb;" horiz-adv-x="1282" 
 />
    <glyph glyph-name="Igrave" unicode="&#xcc;" horiz-adv-x="713" 
 />
    <glyph glyph-name="Iacute" unicode="&#xcd;" horiz-adv-x="713" 
 />
    <glyph glyph-name="Icircumflex" unicode="&#xce;" horiz-adv-x="713" 
 />
    <glyph glyph-name="Idieresis" unicode="&#xcf;" horiz-adv-x="713" 
 />
    <glyph glyph-name="Eth" unicode="&#xd0;" horiz-adv-x="1635" 
 />
    <glyph glyph-name="Ntilde" unicode="&#xd1;" horiz-adv-x="1798" 
 />
    <glyph glyph-name="Ograve" unicode="&#xd2;" horiz-adv-x="1835" 
 />
    <glyph glyph-name="Oacute" unicode="&#xd3;" horiz-adv-x="1835" 
 />
    <glyph glyph-name="Ocircumflex" unicode="&#xd4;" horiz-adv-x="1835" 
 />
    <glyph glyph-name="Otilde" unicode="&#xd5;" horiz-adv-x="1835" 
 />
    <glyph glyph-name="Odieresis" unicode="&#xd6;" horiz-adv-x="1835" 
 />
    <glyph glyph-name="multiply" unicode="&#xd7;" 
 />
    <glyph glyph-name="Oslash" unicode="&#xd8;" horiz-adv-x="1892" 
d="M1477 1663l-53 -109q233 -117 350 -338q121 -223 77 -484q-28 -171 -125 -324q-93 -143 -241 -253q-308 -227 -683 -197q-81 8 -144 23l-104 -201l-127 72l89 174q-258 109 -391 339q-136 233 -91 509q28 170 127 323q97 149 239 253q306 226 684 197q97 -7 190 -35
l67 117zM1157 558q116 89 139 223q14 85 -16 161q-28 74 -93 126l-290 -595q143 -4 260 85zM719 1067q-123 -91 -145 -229q-18 -104 31 -195q47 -87 142 -134l300 627q-31 8 -57 9q-149 12 -271 -78z" />
    <glyph glyph-name="Ugrave" unicode="&#xd9;" horiz-adv-x="1698" 
 />
    <glyph glyph-name="Uacute" unicode="&#xda;" horiz-adv-x="1698" 
 />
    <glyph glyph-name="Ucircumflex" unicode="&#xdb;" horiz-adv-x="1698" 
 />
    <glyph glyph-name="Udieresis" unicode="&#xdc;" horiz-adv-x="1698" 
 />
    <glyph glyph-name="Yacute" unicode="&#xdd;" horiz-adv-x="1958" 
 />
    <glyph glyph-name="Thorn" unicode="&#xde;" horiz-adv-x="1476" 
 />
    <glyph glyph-name="germandbls" unicode="&#xdf;" horiz-adv-x="1607" 
d="M1331 981q98 -81 161 -188q89 -152 94 -312q5 -159 -78 -302q-80 -139 -286 -221q-189 -76 -402 -78l-34 456q106 -4 196 24q96 31 107 84q35 170 -141 212q-56 14 -126 12q-16 0 -25 -1q-12 0 -19 -1l-20 -1l-21 333q0 -1 15 1.5t47 9.5q30 8 45 11q8 2 16 4.5t9 2.5
q132 41 103 157q-11 44 -50 71q-42 29 -93 19q-168 -32 -211 -104q-33 -56 -29 -237l30 -1009l-619 -11q3 155 9 463q1 74 3 170q1 60 3 149q3 145 3 146q3 451 229 683q79 82 184 132q39 20 81 33q28 10 62 18q136 34 289 41q181 10 289 -26q74 -25 146 -68
q83 -50 124 -101q159 -194 74 -394q-30 -73 -85 -126q-46 -47 -80 -52zM851 1098l8 1l1 -1h-9z" />
    <glyph glyph-name="agrave" unicode="&#xe0;" horiz-adv-x="1909" 
 />
    <glyph glyph-name="aacute" unicode="&#xe1;" horiz-adv-x="1909" 
 />
    <glyph glyph-name="acircumflex" unicode="&#xe2;" horiz-adv-x="1909" 
 />
    <glyph glyph-name="atilde" unicode="&#xe3;" horiz-adv-x="1909" 
 />
    <glyph glyph-name="adieresis" unicode="&#xe4;" horiz-adv-x="1909" 
 />
    <glyph glyph-name="aring" unicode="&#xe5;" horiz-adv-x="1909" 
 />
    <glyph glyph-name="ae" unicode="&#xe6;" horiz-adv-x="2605" 
d="M1885 460l665 37l-3 -468l-1192 -26l-7 198l-546 -7l-258 -314l-544 319l1294 1486l1149 96l23 -478l-589 -19l3 -209l354 39l-5 -444l-343 -13zM1326 799l-201 -232q96 0 210 -8z" />
    <glyph glyph-name="ccedilla" unicode="&#xe7;" horiz-adv-x="1699" 
d="M1287 546l192 -363q-210 -159 -481 -182l-20 -54q64 -25 109 -69q51 -49 53 -130q1 -74 -43 -166q-39 -77 -99 -140q-67 -69 -163 -100q-105 -33 -240 -16h-1h-1q-2 1 -7 1q-3 1 -10 2t-11 2q-14 3 -37 7.5t-29 5.5q-96 21 -104 36l-5 10l5 11q34 62 103 187l9 16l18 -5
q165 -48 241 1q26 17 39 41q2 3 7 16q1 1 1 5v1l1 1v1v1q13 49 -10 78q-24 28 -82 40q-23 5 -46 6q-20 2 -35 0l-35 -2l12 33l70 205q-331 81 -528 350q-200 272 -159 598q21 175 112 326q87 145 227 249q296 221 671 174q320 -39 547 -261l-234 -347q-95 77 -219 92
q-166 20 -295 -71q-129 -92 -147 -239q-18 -148 86 -267q104 -120 269 -139q148 -18 269 55z" />
    <glyph glyph-name="egrave" unicode="&#xe8;" horiz-adv-x="1282" 
 />
    <glyph glyph-name="eacute" unicode="&#xe9;" horiz-adv-x="1282" 
 />
    <glyph glyph-name="ecircumflex" unicode="&#xea;" horiz-adv-x="1282" 
 />
    <glyph glyph-name="edieresis" unicode="&#xeb;" horiz-adv-x="1282" 
 />
    <glyph glyph-name="igrave" unicode="&#xec;" horiz-adv-x="713" 
 />
    <glyph glyph-name="iacute" unicode="&#xed;" horiz-adv-x="713" 
 />
    <glyph glyph-name="icircumflex" unicode="&#xee;" horiz-adv-x="713" 
 />
    <glyph glyph-name="idieresis" unicode="&#xef;" horiz-adv-x="713" 
 />
    <glyph glyph-name="eth" unicode="&#xf0;" horiz-adv-x="1635" 
 />
    <glyph glyph-name="ntilde" unicode="&#xf1;" horiz-adv-x="1798" 
 />
    <glyph glyph-name="ograve" unicode="&#xf2;" horiz-adv-x="1835" 
 />
    <glyph glyph-name="oacute" unicode="&#xf3;" horiz-adv-x="1835" 
 />
    <glyph glyph-name="ocircumflex" unicode="&#xf4;" horiz-adv-x="1835" 
 />
    <glyph glyph-name="otilde" unicode="&#xf5;" horiz-adv-x="1835" 
 />
    <glyph glyph-name="odieresis" unicode="&#xf6;" horiz-adv-x="1835" 
 />
    <glyph glyph-name="divide" unicode="&#xf7;" 
 />
    <glyph glyph-name="oslash" unicode="&#xf8;" horiz-adv-x="1892" 
d="M1477 1663l-53 -109q233 -117 350 -338q121 -223 77 -484q-28 -171 -125 -324q-93 -143 -241 -253q-308 -227 -683 -197q-81 8 -144 23l-104 -201l-127 72l89 174q-258 109 -391 339q-136 233 -91 509q28 170 127 323q97 149 239 253q306 226 684 197q97 -7 190 -35
l67 117zM1157 558q116 89 139 223q14 85 -16 161q-28 74 -93 126l-290 -595q143 -4 260 85zM719 1067q-123 -91 -145 -229q-18 -104 31 -195q47 -87 142 -134l300 627q-31 8 -57 9q-149 12 -271 -78z" />
    <glyph glyph-name="ugrave" unicode="&#xf9;" horiz-adv-x="1698" 
 />
    <glyph glyph-name="uacute" unicode="&#xfa;" horiz-adv-x="1698" 
 />
    <glyph glyph-name="ucircumflex" unicode="&#xfb;" horiz-adv-x="1698" 
 />
    <glyph glyph-name="udieresis" unicode="&#xfc;" horiz-adv-x="1698" 
 />
    <glyph glyph-name="yacute" unicode="&#xfd;" horiz-adv-x="1958" 
 />
    <glyph glyph-name="thorn" unicode="&#xfe;" horiz-adv-x="1476" 
 />
    <glyph glyph-name="ydieresis" unicode="&#xff;" horiz-adv-x="1958" 
 />
    <glyph glyph-name="Aogonek" unicode="&#x104;" horiz-adv-x="1909" 
 />
    <glyph glyph-name="aogonek" unicode="&#x105;" horiz-adv-x="1909" 
 />
    <glyph glyph-name="Cacute" unicode="&#x106;" horiz-adv-x="1671" 
 />
    <glyph glyph-name="cacute" unicode="&#x107;" horiz-adv-x="1671" 
 />
    <glyph glyph-name="Eogonek" unicode="&#x118;" horiz-adv-x="1282" 
 />
    <glyph glyph-name="eogonek" unicode="&#x119;" horiz-adv-x="1282" 
 />
    <glyph glyph-name="dotlessi" unicode="&#x131;" horiz-adv-x="713" 
 />
    <glyph glyph-name="Lslash" unicode="&#x141;" horiz-adv-x="1488" 
 />
    <glyph glyph-name="lslash" unicode="&#x142;" horiz-adv-x="1488" 
 />
    <glyph glyph-name="Nacute" unicode="&#x143;" horiz-adv-x="1798" 
 />
    <glyph glyph-name="nacute" unicode="&#x144;" horiz-adv-x="1798" 
 />
    <glyph glyph-name="Ncaron" unicode="&#x147;" horiz-adv-x="1798" 
 />
    <glyph glyph-name="ncaron" unicode="&#x148;" horiz-adv-x="1798" 
 />
    <glyph glyph-name="OE" unicode="&#x152;" horiz-adv-x="2547" 
 />
    <glyph glyph-name="oe" unicode="&#x153;" horiz-adv-x="2547" 
 />
    <glyph glyph-name="Rcaron" unicode="&#x158;" horiz-adv-x="1528" 
 />
    <glyph glyph-name="rcaron" unicode="&#x159;" horiz-adv-x="1528" 
 />
    <glyph glyph-name="Scaron" unicode="&#x160;" horiz-adv-x="1316" 
 />
    <glyph glyph-name="scaron" unicode="&#x161;" horiz-adv-x="1339" 
 />
    <glyph glyph-name="Tcaron" unicode="&#x164;" horiz-adv-x="1479" 
 />
    <glyph glyph-name="tcaron" unicode="&#x165;" horiz-adv-x="1479" 
 />
    <glyph glyph-name="Ydieresis.001" unicode="&#x178;" horiz-adv-x="1958" 
 />
    <glyph glyph-name="Zacute" unicode="&#x179;" horiz-adv-x="1720" 
 />
    <glyph glyph-name="zacute" unicode="&#x17a;" horiz-adv-x="1720" 
 />
    <glyph glyph-name="Zdotaccent" unicode="&#x17b;" horiz-adv-x="1720" 
 />
    <glyph glyph-name="zdotaccent" unicode="&#x17c;" horiz-adv-x="1720" 
 />
    <glyph glyph-name="Zcaron" unicode="&#x17d;" horiz-adv-x="1720" 
 />
    <glyph glyph-name="zcaron" unicode="&#x17e;" horiz-adv-x="1720" 
 />
    <glyph glyph-name="circumflex" unicode="&#x2c6;" horiz-adv-x="964" 
d="M480 2553l93 -80l336 -288l-208 -242l-242 207l-278 -192l-181 263l379 262z" />
    <glyph glyph-name="caron" unicode="&#x2c7;" horiz-adv-x="964" 
d="M429 1943l-94 80l-335 287l208 243l242 -208l277 192l182 -262l-379 -262z" />
    <glyph glyph-name="uni02C9" unicode="&#x2c9;" horiz-adv-x="823" 
 />
    <glyph glyph-name="breve" unicode="&#x2d8;" horiz-adv-x="1047" 
 />
    <glyph glyph-name="dotaccent" unicode="&#x2d9;" horiz-adv-x="524" 
 />
    <glyph glyph-name="ring" unicode="&#x2da;" horiz-adv-x="511" 
 />
    <glyph glyph-name="ogonek" unicode="&#x2db;" horiz-adv-x="666" 
 />
    <glyph glyph-name="tilde" unicode="&#x2dc;" horiz-adv-x="1182" 
 />
    <glyph glyph-name="hungarumlaut" unicode="&#x2dd;" 
 />
    <glyph glyph-name="endash" unicode="&#x2013;" 
 />
    <glyph glyph-name="emdash" unicode="&#x2014;" 
 />
    <glyph glyph-name="quoteleft" unicode="&#x2018;" horiz-adv-x="533" 
 />
    <glyph glyph-name="quoteright" unicode="&#x2019;" horiz-adv-x="527" 
 />
    <glyph glyph-name="quotesinglbase" unicode="&#x201a;" horiz-adv-x="527" 
 />
    <glyph glyph-name="quotedblleft" unicode="&#x201c;" horiz-adv-x="1083" 
 />
    <glyph glyph-name="quotedblright" unicode="&#x201d;" horiz-adv-x="1083" 
 />
    <glyph glyph-name="quotedblbase" unicode="&#x201e;" horiz-adv-x="1111" 
 />
    <glyph glyph-name="dagger" unicode="&#x2020;" 
 />
    <glyph glyph-name="daggerdbl" unicode="&#x2021;" 
 />
    <glyph glyph-name="bullet" unicode="&#x2022;" 
 />
    <glyph glyph-name="ellipsis" unicode="&#x2026;" horiz-adv-x="2048" 
 />
    <glyph glyph-name="guilsinglleft" unicode="&#x2039;" 
 />
    <glyph glyph-name="guilsinglright" unicode="&#x203a;" horiz-adv-x="2353" 
 />
    <glyph glyph-name="fraction" unicode="&#x2044;" 
 />
    <glyph glyph-name="fraction" unicode="&#x2215;" 
 />
    <glyph glyph-name="franc" unicode="&#x20a3;" 
 />
    <glyph glyph-name="lira" unicode="&#x20a4;" 
 />
    <glyph glyph-name="peseta" unicode="&#x20a7;" 
 />
    <glyph glyph-name="Euro" unicode="&#x20ac;" horiz-adv-x="1330" 
 />
    <glyph glyph-name="uni2116" unicode="&#x2116;" 
 />
    <glyph glyph-name="trademark" unicode="&#x2122;" 
 />
    <glyph glyph-name="partialdiff" unicode="&#x2202;" 
 />
    <glyph glyph-name="increment" unicode="&#x2206;" 
 />
    <glyph glyph-name="product" unicode="&#x220f;" 
 />
    <glyph glyph-name="summation" unicode="&#x2211;" 
 />
    <glyph glyph-name="minus" unicode="&#x2212;" 
 />
    <glyph glyph-name="radical" unicode="&#x221a;" 
 />
    <glyph glyph-name="infinity" unicode="&#x221e;" 
 />
    <glyph glyph-name="integral" unicode="&#x222b;" 
 />
    <glyph glyph-name="approxequal" unicode="&#x2248;" 
 />
    <glyph glyph-name="lessequal" unicode="&#x2264;" 
 />
    <glyph glyph-name="greaterequal" unicode="&#x2265;" 
 />
    <glyph glyph-name="uniF001" unicode="&#xf001;" 
 />
    <glyph glyph-name="uniF001" unicode="&#xfb01;" 
 />
    <glyph glyph-name="uniF002" unicode="&#xf002;" 
 />
    <glyph glyph-name="uniF002" unicode="&#xfb02;" 
 />
    <glyph glyph-name="CR" horiz-adv-x="508" 
 />
    <glyph glyph-name="Ydieresis" horiz-adv-x="1958" 
 />
    </font>
</defs>
</svg>
